<?xml version="1.0" encoding="iso-8859-1"?>
<!-- Generator: Adobe Illustrator 19.0.0, SVG Export Plug-In . SVG Version: 6.00 Build 0)  -->
<svg version="1.1" id="Layer_1" xmlns="http://www.w3.org/2000/svg" xmlns:xlink="http://www.w3.org/1999/xlink" x="0px" y="0px"
	 viewBox="0 0 480 480" style="enable-background:new 0 0 480 480;" xml:space="preserve">
<g>
	<g>
		<g>
			<path d="M276.579,372.98c16.385,8.709,34.265,11.314,49.789,11.314c22.276,0,39.704-5.362,40.916-5.744
				c3.057-0.964,5.466-3.334,6.478-6.375c0.69-2.069,16.647-51.143-4.915-91.367c-10.871-20.281-29.125-34.5-54.283-42.33
				L107.776,31.688l31.672-6.747l105.229,105.233c1.953,1.953,4.512,2.929,7.071,2.929c2.559,0,5.118-0.977,7.071-2.929
				c3.905-3.905,3.905-10.237,0-14.142L149.748,6.958c-2.396-2.396-5.843-3.418-9.154-2.71L90.918,14.83l-7.16-7.161
				c-1.876-1.875-4.419-2.929-7.071-2.929c-2.652,0-5.195,1.054-7.071,2.929L2.929,74.355c-3.905,3.905-3.905,10.237,0,14.143
				l231.689,231.689C242.407,344.541,256.501,362.308,276.579,372.98z M351.17,290.163c10.669,19.823,9.732,43.416,7.34,58.933
				l-33.015-32.999c-3.904-3.904-10.236-3.903-14.143,0.003c-3.904,3.906-3.902,10.238,0.004,14.142l32.8,32.784
				c-15.402,2.141-38.56,2.727-58.191-7.707c-14.366-7.636-24.809-20.34-31.127-37.776l58.404-58.4
				C330.784,265.56,343.528,275.963,351.17,290.163z M24.143,81.426l52.544-52.544l52.768,52.768l-52.748,52.34L24.143,81.426z
				 M143.597,95.793L295.951,248.15l-52.544,52.541L90.849,148.133L143.597,95.793z"/>
			<path d="M470,408.812H187.074c-5.522,0-10,4.477-10,10s4.478,10,10,10H470c5.522,0,10-4.477,10-10S475.523,408.812,470,408.812z"
				/>
			<path d="M399.256,455.972H257.797c-5.523,0-10,4.477-10,10s4.477,10,10,10h141.459c5.522,0,10-4.477,10-10
				C409.256,460.449,404.779,455.972,399.256,455.972z"/>
		</g>
	</g>
</g>
<g>
</g>
<g>
</g>
<g>
</g>
<g>
</g>
<g>
</g>
<g>
</g>
<g>
</g>
<g>
</g>
<g>
</g>
<g>
</g>
<g>
</g>
<g>
</g>
<g>
</g>
<g>
</g>
<g>
</g>
</svg>
